<svg xmlns="http://www.w3.org/2000/svg" xmlns:xlink="http://www.w3.org/1999/xlink" id="Layer_1" width="24" height="24" x="0" y="0" enable-background="new 0 0 24 24" version="1.1" viewBox="0 0 24 24" xml:space="preserve"><path fill="#FFF" d="M22,17.607c-0.786,2.28-3.139,6.317-5.563,6.361c-1.608,0.031-2.125-0.953-3.963-0.953	c-1.837,0-2.412,0.923-3.932,0.983C5.97,24.097,2,18.171,2,13.003c0-4.747,3.308-7.1,6.198-7.143	c1.55-0.028,3.014,1.045,3.959,1.045c0.949,0,2.727-1.29,4.596-1.101c0.782,0.033,2.979,0.315,4.389,2.377	C17.401,10.623,17.984,15.73,22,17.607z M16.778,0c-2.826,0.114-5.132,3.079-4.81,5.531C14.58,5.734,17.086,2.806,16.778,0z"/></svg>