<svg xmlns="http://www.w3.org/2000/svg" version="1.1" xmlns:xlink="http://www.w3.org/1999/xlink" xmlns:svgjs="http://svgjs.dev/svgjs" width="2000" height="1247" viewBox="0 0 2000 1247"><g transform="matrix(1,0,0,1,-1.2121212121212466,0.504858299595071)"><svg viewBox="0 0 396 247" data-background-color="#d9bca9" preserveAspectRatio="xMidYMid meet" height="1247" width="2000" xmlns="http://www.w3.org/2000/svg" xmlns:xlink="http://www.w3.org/1999/xlink"><g id="tight-bounds" transform="matrix(1,0,0,1,0.2400000000000091,-0.09999999999999432)"><svg viewBox="0 0 395.52 247.2" height="247.2" width="395.52"><g><svg></svg></g><g><svg viewBox="0 0 395.52 247.2" height="247.2" width="395.52"><g><g><path d="M125.563 225.027c-14.181 0-27.089-1.922-38.724-5.767h77.552c-11.6 3.845-24.543 5.767-38.829 5.767zM123.809 22.173c15.096 0 28.569 1.922 40.419 5.767l-76.943 0c11.126-3.845 23.3-5.767 36.524-5.767zM322.279 225.027c-13.48 0-25.836-1.922-37.067-5.767h74.923c-10.368 3.845-22.987 5.767-37.856 5.767zM321.694 23.05c14.151 0 26.408 1.63 36.771 4.89l-70.26 0c10.287-3.26 21.45-4.89 33.489-4.89z" fill="#ffffff" fill-rule="nonzero" stroke="none" stroke-width="1" stroke-linecap="butt" stroke-linejoin="miter" stroke-miterlimit="10" stroke-dasharray="" stroke-dashoffset="0" font-family="none" font-weight="none" font-size="none" text-anchor="none" style="mix-blend-mode: normal" data-fill-palette-color="tertiary"></path></g></g><g transform="matrix(1,0,0,1,22.368088360008926,37.08)"><svg viewBox="0 0 350.78382327998213 173.04" height="173.04" width="350.78382327998213"><g><svg viewBox="0 0 395.5199999999999 195.10814426973502" height="173.04" width="350.78382327998213"><g transform="matrix(1,0,0,1,0,117.52541285300072)"><svg viewBox="0 0 395.5199999999999 77.5827314167343" height="77.5827314167343" width="395.5199999999999"><g id="textblocktransform"><svg viewBox="0 0 395.5199999999999 77.5827314167343" height="77.5827314167343" width="395.5199999999999" id="textblock"><g><svg viewBox="0 0 395.5199999999999 43.65576354679803" height="43.65576354679803" width="395.5199999999999"><g transform="matrix(1,0,0,1,0,0)"><svg width="395.5199999999999" viewBox="2.3 -35.35 324.77 35.85" height="43.65576354679803" data-palette-color="#000000"><path d="M18.85-19.25L30.75-19.25 30.75-3.1 30.7-3.1 30.75-2.75Q26.4 0.4 19.85 0.4L19.85 0.4Q11.95 0.4 7.13-4.25 2.3-8.9 2.3-16.9L2.3-16.9Q2.3-24.65 7.18-29.48 12.05-34.3 19.55-34.3L19.55-34.3Q25.4-34.3 29.35-32.05L29.35-32.05 29.35-26.75Q25.05-29.45 19.75-29.45L19.75-29.45Q14.35-29.45 11.03-26 7.7-22.55 7.7-16.9L7.7-16.9Q7.7-11.1 10.98-7.75 14.25-4.4 20-4.4L20-4.4Q23-4.4 25.7-5.5L25.7-5.5 25.7-14.8 18.85-14.8 18.85-19.25ZM48.1 0.45L48.1 0.45Q42.5 0.45 39.3-3.2 36.1-6.85 36.1-12.45L36.1-12.45Q36.1-18.15 39.4-21.93 42.7-25.7 48.1-25.7L48.1-25.7Q53.9-25.7 57.05-22.03 60.2-18.35 60.2-12.65 60.2-6.95 56.97-3.25 53.75 0.45 48.1 0.45ZM48.05-21.55L48.05-21.55Q44.8-21.55 43-18.98 41.2-16.4 41.2-12.6L41.2-12.6Q41.2-8.85 43.05-6.28 44.9-3.7 48.1-3.7L48.1-3.7Q51.5-3.7 53.27-6.2 55.05-8.7 55.05-12.55L55.05-12.55Q55.05-16.5 53.35-19.03 51.65-21.55 48.05-21.55ZM80.15-24.5L80.15-24.5 80.15-20.05Q77.7-21.5 73.85-21.5L73.85-21.5Q72.1-21.5 71.07-20.7 70.05-19.9 70.05-18.6L70.05-18.6Q70.05-18.25 70.12-17.93 70.2-17.6 70.4-17.28 70.6-16.95 70.77-16.73 70.95-16.5 71.35-16.25 71.75-16 71.97-15.83 72.2-15.65 72.72-15.4 73.25-15.15 73.5-15.03 73.75-14.9 74.37-14.63 75-14.35 75.25-14.25L75.25-14.25Q78.2-12.95 79.87-11.33 81.55-9.7 81.55-7L81.55-7Q81.55-3.6 79.15-1.68 76.75 0.25 72.65 0.25L72.65 0.25Q68.15 0.25 65.15-1.25L65.15-1.25 65.15-5.9Q68.65-3.75 72.4-3.75L72.4-3.75Q74.35-3.75 75.42-4.55 76.5-5.35 76.5-6.65L76.5-6.65Q76.5-7.75 75.65-8.63 74.8-9.5 73.92-9.93 73.05-10.35 70.95-11.25L70.95-11.25Q65-13.7 65-18.45L65-18.45Q65-21.8 67.5-23.7 70-25.6 73.75-25.6L73.75-25.6Q77.85-25.6 80.15-24.5ZM86.64-35.35L91.54-35.35 91.54-21Q93.69-25.7 99.39-25.7L99.39-25.7Q103.09-25.7 105.34-23.4 107.59-21.1 107.59-17L107.59-17 107.59 0 102.69 0 102.69-16Q102.69-18.6 101.37-20.03 100.04-21.45 97.89-21.45L97.89-21.45Q95.39-21.45 93.47-19.55 91.54-17.65 91.54-13.75L91.54-13.75 91.54 0 86.64 0 86.64-35.35ZM117.69-14.5L129.94-14.5 129.94-15.4Q129.84-18.25 128.39-19.93 126.94-21.6 124.24-21.6L124.24-21.6Q121.74-21.6 119.94-19.78 118.14-17.95 117.69-14.5L117.69-14.5ZM133.09-5.75L133.09-5.75 133.09-1.35Q130.29 0.25 125.69 0.25L125.69 0.25Q119.79 0.25 116.29-3.3 112.79-6.85 112.79-12.6L112.79-12.6Q112.79-18.7 115.99-22.18 119.19-25.65 124.14-25.65L124.14-25.65Q128.99-25.65 131.84-22.63 134.69-19.6 134.69-13.9L134.69-13.9Q134.69-12.35 134.39-10.65L134.39-10.65 117.74-10.65Q118.24-7.35 120.54-5.6 122.84-3.85 126.34-3.85L126.34-3.85Q130.39-3.85 133.09-5.75ZM140.44-25.35L145.34-25.35 145.34-21Q147.59-25.7 153.24-25.7L153.24-25.7Q156.99-25.7 159.19-23.4 161.39-21.1 161.39-17.15L161.39-17.15 161.39 0 156.49 0 156.49-16Q156.49-18.65 155.16-20.05 153.84-21.45 151.64-21.45L151.64-21.45Q149.04-21.45 147.19-19.43 145.34-17.4 145.34-13.75L145.34-13.75 145.34 0 140.44 0 140.44-25.35ZM204.83-32.3L204.83-32.3 204.83-27.25Q202.63-28.45 200.86-28.93 199.08-29.4 196.33-29.4L196.33-29.4Q191.28-29.4 187.91-25.98 184.53-22.55 184.53-16.9L184.53-16.9Q184.53-11.15 187.88-7.75 191.23-4.35 196.73-4.35L196.73-4.35Q201.58-4.35 204.88-6.85L204.88-6.85 204.88-1.65Q201.78 0.4 196.28 0.4L196.28 0.4Q188.73 0.4 183.93-4.3 179.13-9 179.13-16.9L179.13-16.9Q179.13-24.55 183.96-29.35 188.78-34.15 196.18-34.15L196.18-34.15Q201.58-34.15 204.83-32.3ZM210.53-35.35L215.43-35.35 215.43-21Q217.58-25.7 223.28-25.7L223.28-25.7Q226.98-25.7 229.23-23.4 231.48-21.1 231.48-17L231.48-17 231.48 0 226.58 0 226.58-16Q226.58-18.6 225.26-20.03 223.93-21.45 221.78-21.45L221.78-21.45Q219.28-21.45 217.36-19.55 215.43-17.65 215.43-13.75L215.43-13.75 215.43 0 210.53 0 210.53-35.35ZM253.83-11.55L253.83-25.35 258.73-25.35 258.73 0 253.83 0 253.83-4.35Q251.83 0.3 245.93 0.3L245.93 0.3Q242.18 0.3 239.98-1.93 237.78-4.15 237.78-8.05L237.78-8.05 237.78-25.35 242.73-25.35 242.73-9.25Q242.73-6.65 244-5.28 245.28-3.9 247.53-3.9L247.53-3.9Q250.38-3.9 252.1-5.9 253.83-7.9 253.83-11.55L253.83-11.55ZM265.63-25.35L270.53-25.35 270.53-20.9Q272.38-25.6 277.18-25.6L277.18-25.6Q277.88-25.6 278.73-25.45L278.73-25.45 278.73-20.65Q277.68-21.1 276.38-21.1L276.38-21.1Q273.83-21.1 272.18-18.85 270.53-16.6 270.53-13.5L270.53-13.5 270.53 0 265.63 0 265.63-25.35ZM286.22-12.55L286.22-12.55Q286.32-8.7 288.57-6.23 290.82-3.75 294.87-3.75L294.87-3.75Q297.87-3.75 300.47-5.4L300.47-5.4 300.47-1Q298.02 0.5 294.22 0.5L294.22 0.5Q288.27 0.5 284.72-3.25 281.17-7 281.17-12.6L281.17-12.6Q281.17-18.05 284.75-21.93 288.32-25.8 294.42-25.8L294.42-25.8Q297.72-25.8 300.47-24.4L300.47-24.4 300.47-19.9Q298.02-21.45 294.92-21.45L294.92-21.45Q290.97-21.45 288.6-18.95 286.22-16.45 286.22-12.55ZM306.12-35.35L311.02-35.35 311.02-21Q313.17-25.7 318.87-25.7L318.87-25.7Q322.57-25.7 324.82-23.4 327.07-21.1 327.07-17L327.07-17 327.07 0 322.17 0 322.17-16Q322.17-18.6 320.85-20.03 319.52-21.45 317.37-21.45L317.37-21.45Q314.87-21.45 312.95-19.55 311.02-17.65 311.02-13.75L311.02-13.75 311.02 0 306.12 0 306.12-35.35Z" opacity="1" transform="matrix(1,0,0,1,0,0)" fill="#ffffff" class="undefined-text-0" data-fill-palette-color="primary" id="text-0"></path></svg></g></svg></g><g transform="matrix(1,0,0,1,75.54431999999998,53.96184158187192)"><svg viewBox="0 0 244.43135999999996 23.62088983486238" height="23.62088983486238" width="244.43135999999996"><g transform="matrix(1,0,0,1,0,0)"><svg width="244.43135999999996" viewBox="5.76 -41.94 439.05 42.43" height="23.62088983486238" data-palette-color="#000000"><path d="M5.76 0L5.76-37.35 9.91-37.35 9.91-20.48 27.56-20.48 27.56-37.35 31.69-37.35 31.69 0 27.56 0 27.56-16.94 9.91-16.94 9.91 0 5.76 0ZM42.04-14.45L42.04-14.45Q42.04-20 42.6-22.19 43.16-24.39 43.98-25.67 44.8-26.95 46.19-27.81L46.19-27.81Q48.97-29.54 54.42-29.54L54.42-29.54Q62.28-29.54 64.52-25.66L64.52-25.66Q65.87-23.32 66.06-19.04L66.06-19.04Q66.14-17.02 66.14-14.58 66.14-12.13 65.98-10.02 65.82-7.91 65.35-6.23 64.89-4.54 64.06-3.28 63.23-2.03 61.86-1.17L61.86-1.17Q59.18 0.49 54.03 0.49L54.03 0.49Q46.31 0.49 43.89-3.32L43.89-3.32Q42.4-5.69 42.16-9.96L42.16-9.96Q42.04-12.01 42.04-14.45ZM48.68-4.27Q49.56-3.61 50.89-3.28 52.22-2.95 54.53-2.95 56.83-2.95 58.41-3.61 59.98-4.27 60.78-5.73 61.57-7.18 61.78-9.5 61.98-11.82 61.98-14.89 61.98-17.97 61.8-20.02 61.62-22.07 60.89-23.41L60.89-23.41Q59.42-26.05 54.37-26.05L54.37-26.05Q49.02-26.05 47.41-23.41L47.41-23.41Q46.6-22.07 46.38-20 46.16-17.92 46.16-15.48 46.16-13.04 46.23-11.34 46.29-9.64 46.54-8.29 46.8-6.93 47.3-5.93 47.8-4.93 48.68-4.27ZM89.91-25.73L89.91-25.73Q85.15-25.73 80.22-22.92L80.22-22.92 80.22 0 76.17 0 76.17-29.05 79.73-29.05 80.12-26.05Q82.78-28.22 86.74-29.15L86.74-29.15Q88.35-29.54 90.52-29.54 92.7-29.54 94.36-29.04 96.02-28.54 96.99-27.44L96.99-27.44Q98.77-25.46 98.77-20.24L98.77-20.24 98.77 0 94.67 0 94.67-19.48Q94.67-23 93.99-24.01 93.31-25.02 92.37-25.38 91.43-25.73 89.91-25.73ZM108.61-14.45L108.61-14.45Q108.61-20 109.17-22.19 109.73-24.39 110.55-25.67 111.37-26.95 112.76-27.81L112.76-27.81Q115.54-29.54 120.99-29.54L120.99-29.54Q128.85-29.54 131.1-25.66L131.1-25.66Q132.44-23.32 132.63-19.04L132.63-19.04Q132.71-17.02 132.71-14.58 132.71-12.13 132.55-10.02 132.39-7.91 131.93-6.23 131.46-4.54 130.63-3.28 129.8-2.03 128.43-1.17L128.43-1.17Q125.75 0.49 120.6 0.49L120.6 0.49Q112.88 0.49 110.47-3.32L110.47-3.32Q108.98-5.69 108.73-9.96L108.73-9.96Q108.61-12.01 108.61-14.45ZM115.25-4.27Q116.13-3.61 117.46-3.28 118.79-2.95 121.1-2.95 123.41-2.95 124.98-3.61 126.56-4.27 127.35-5.73 128.14-7.18 128.35-9.5 128.56-11.82 128.56-14.89 128.56-17.97 128.37-20.02 128.19-22.07 127.46-23.41L127.46-23.41Q125.99-26.05 120.94-26.05L120.94-26.05Q115.59-26.05 113.98-23.41L113.98-23.41Q113.18-22.07 112.96-20 112.74-17.92 112.74-15.48 112.74-13.04 112.8-11.34 112.86-9.64 113.12-8.29 113.37-6.93 113.87-5.93 114.37-4.93 115.25-4.27ZM153.16-25.51L153.16-25.51Q150.04-25.51 146.79-22.39L146.79-22.39 146.79 0 142.74 0 142.74-29.05 146.3-29.05 146.69-25.2Q147.84-26.98 149.17-27.98 150.5-28.98 151.36-29.2L151.36-29.2Q152.58-29.54 153.68-29.54 154.78-29.54 156.44-29.1L156.44-29.1 156.07-25.22Q154.82-25.51 153.16-25.51ZM188.97-4.57L190.37-1.39Q186.39 0.49 183.02 0.49L183.02 0.49Q176.91 0.49 176.08-4.74L176.08-4.74Q175.89-5.98 175.89-8.35L175.89-8.35 175.89-25.66 172.37-25.66 172.37-28.66 175.89-29.05 176.52-35.69 179.92-35.69 179.92-29.05 188.39-29.05 188.39-25.66 179.92-25.66 179.92-8.42Q179.92-5.42 180.36-4.59L180.36-4.59Q181.16-3.08 183.58-3.08 186-3.08 188.97-4.57L188.97-4.57ZM196.05-14.45L196.05-14.45Q196.05-20 196.61-22.19 197.17-24.39 197.99-25.67 198.81-26.95 200.2-27.81L200.2-27.81Q202.99-29.54 208.43-29.54L208.43-29.54Q216.29-29.54 218.54-25.66L218.54-25.66Q219.88-23.32 220.08-19.04L220.08-19.04Q220.15-17.02 220.15-14.58 220.15-12.13 219.99-10.02 219.83-7.91 219.37-6.23 218.9-4.54 218.07-3.28 217.24-2.03 215.88-1.17L215.88-1.17Q213.19 0.49 208.04 0.49L208.04 0.49Q200.32 0.49 197.91-3.32L197.91-3.32Q196.42-5.69 196.17-9.96L196.17-9.96Q196.05-12.01 196.05-14.45ZM202.69-4.27Q203.57-3.61 204.9-3.28 206.23-2.95 208.54-2.95 210.85-2.95 212.42-3.61 214-4.27 214.79-5.73 215.58-7.18 215.79-9.5 216-11.82 216-14.89 216-17.97 215.82-20.02 215.63-22.07 214.9-23.41L214.9-23.41Q213.43-26.05 208.38-26.05L208.38-26.05Q203.03-26.05 201.42-23.41L201.42-23.41Q200.62-22.07 200.4-20 200.18-17.92 200.18-15.48 200.18-13.04 200.24-11.34 200.3-9.64 200.56-8.29 200.81-6.93 201.31-5.93 201.81-4.93 202.69-4.27ZM241.8-14.45L241.8-14.45Q241.8-20 242.36-22.19 242.92-24.39 243.74-25.67 244.56-26.95 245.95-27.81L245.95-27.81Q248.73-29.54 254.18-29.54L254.18-29.54Q262.04-29.54 264.28-25.66L264.28-25.66Q265.63-23.32 265.82-19.04L265.82-19.04Q265.9-17.02 265.9-14.58 265.9-12.13 265.74-10.02 265.58-7.91 265.11-6.23 264.65-4.54 263.82-3.28 262.99-2.03 261.62-1.17L261.62-1.17Q258.94 0.49 253.79 0.49L253.79 0.49Q246.07 0.49 243.65-3.32L243.65-3.32Q242.17-5.69 241.92-9.96L241.92-9.96Q241.8-12.01 241.8-14.45ZM248.44-4.27Q249.32-3.61 250.65-3.28 251.98-2.95 254.29-2.95 256.59-2.95 258.17-3.61 259.74-4.27 260.54-5.73 261.33-7.18 261.54-9.5 261.75-11.82 261.75-14.89 261.75-17.97 261.56-20.02 261.38-22.07 260.65-23.41L260.65-23.41Q259.18-26.05 254.13-26.05L254.13-26.05Q248.78-26.05 247.17-23.41L247.17-23.41Q246.36-22.07 246.14-20 245.92-17.92 245.92-15.48 245.92-13.04 245.99-11.34 246.05-9.64 246.3-8.29 246.56-6.93 247.06-5.93 247.56-4.93 248.44-4.27ZM297.9-29.05L297.9-12.79Q297.9-4.74 298.36-0.2L298.36-0.2 294.73 0.1 294.14-3.34Q291.28-0.98 287.48 0.07L287.48 0.07Q285.96 0.49 283.87 0.49 281.79 0.49 280.14-0.01 278.49-0.51 277.51-1.61L277.51-1.61Q275.73-3.59 275.73-8.81L275.73-8.81 275.73-29.05 279.83-29.05 279.83-9.47Q279.83-5.96 280.52-4.94 281.2-3.93 282.14-3.58 283.08-3.22 284.37-3.22 285.67-3.22 286.88-3.43 288.09-3.64 289.31-4.03L289.31-4.03Q291.87-4.86 293.94-6.3L293.94-6.3 293.94-6.32Q293.85-8.18 293.85-13.55L293.85-13.55 293.85-29.05 297.9-29.05ZM319.65-25.51L319.65-25.51Q316.53-25.51 313.28-22.39L313.28-22.39 313.28 0 309.23 0 309.23-29.05 312.79-29.05 313.18-25.2Q314.33-26.98 315.66-27.98 316.99-28.98 317.84-29.2L317.84-29.2Q319.06-29.54 320.16-29.54 321.26-29.54 322.92-29.1L322.92-29.1 322.56-25.22Q321.31-25.51 319.65-25.51ZM342.84 0L342.84-37.35 346.99-37.35 346.99-3.59 361.78-3.59 361.78 0 342.84 0ZM366.74-14.45L366.74-14.45Q366.74-20 367.3-22.19 367.86-24.39 368.68-25.67 369.5-26.95 370.89-27.81L370.89-27.81Q373.67-29.54 379.12-29.54L379.12-29.54Q386.98-29.54 389.22-25.66L389.22-25.66Q390.57-23.32 390.76-19.04L390.76-19.04Q390.83-17.02 390.83-14.58 390.83-12.13 390.68-10.02 390.52-7.91 390.05-6.23 389.59-4.54 388.76-3.28 387.93-2.03 386.56-1.17L386.56-1.17Q383.88 0.49 378.72 0.49L378.72 0.49Q371.01 0.49 368.59-3.32L368.59-3.32Q367.1-5.69 366.86-9.96L366.86-9.96Q366.74-12.01 366.74-14.45ZM373.38-4.27Q374.26-3.61 375.59-3.28 376.92-2.95 379.23-2.95 381.53-2.95 383.11-3.61 384.68-4.27 385.48-5.73 386.27-7.18 386.48-9.5 386.68-11.82 386.68-14.89 386.68-17.97 386.5-20.02 386.32-22.07 385.59-23.41L385.59-23.41Q384.12-26.05 379.07-26.05L379.07-26.05Q373.72-26.05 372.11-23.41L372.11-23.41Q371.3-22.07 371.08-20 370.86-17.92 370.86-15.48 370.86-13.04 370.92-11.34 370.99-9.64 371.24-8.29 371.5-6.93 372-5.93 372.5-4.93 373.38-4.27ZM411.29-25.51L411.29-25.51Q408.17-25.51 404.92-22.39L404.92-22.39 404.92 0 400.87 0 400.87-29.05 404.43-29.05 404.82-25.2Q405.97-26.98 407.3-27.98 408.63-28.98 409.48-29.2L409.48-29.2Q410.7-29.54 411.8-29.54 412.9-29.54 414.56-29.1L414.56-29.1 414.2-25.22Q412.95-25.51 411.29-25.51ZM441.17 0.1L440.59-3.25Q435.43 0.49 430.11 0.49L430.11 0.49Q424.23 0.49 422.27-3.83L422.27-3.83Q421.15-6.27 421.02-9 420.88-11.72 420.88-13.78 420.88-15.84 420.92-17.94 420.96-20.04 421.22-21.83 421.49-23.61 422.07-25.04 422.64-26.46 423.71-27.47L423.71-27.47Q425.94-29.54 431.05-29.54 436.17-29.54 440.29-27.76L440.29-27.76 440.29-41.55 444.34-41.94 444.34-13.35Q444.34-4.93 444.81-0.2L444.81-0.2 441.17 0.1ZM440.27-13.55L440.29-24.41Q435.9-25.88 431.8-25.88L431.8-25.88Q428.82-25.88 427.87-25.39 426.91-24.9 426.41-24.12 425.91-23.34 425.59-21.97L425.59-21.97Q425.03-19.41 425.03-13.53L425.03-13.53 425.03-12.99Q425.03-7.5 426.23-5.4L426.23-5.4Q427.52-3.17 431.04-3.17L431.04-3.17 431.41-3.17Q434.77-3.17 438.58-5.32L438.58-5.32Q439.63-5.91 440.39-6.49L440.39-6.49 440.39-6.54Q440.27-8.81 440.27-13.55L440.27-13.55Z" opacity="1" transform="matrix(1,0,0,1,0,0)" fill="#ffffff" class="undefined-text-1" data-fill-palette-color="secondary" id="text-1"></path></svg></g></svg></g></svg></g></svg></g><g transform="matrix(1,0,0,1,153.70696257079797,0)"><svg viewBox="0 0 88.10607485840397 107.21933481792682" height="107.21933481792682" width="88.10607485840397"><g><svg version="1.1" xmlns="http://www.w3.org/2000/svg" xmlns:xlink="http://www.w3.org/1999/xlink" x="8" y="0" viewBox="0 0 67.251 100" enable-background="new 0 0 67.252 100" xml:space="preserve" width="72.10607485840397" height="107.21933481792682" class="icon-icon-0" data-fill-palette-color="accent" id="icon-0"><path d="M0 99.998v-8.154h7.904v-6.649h7.905v-6.526h10.288V28.105H8.532V14.304h17.566V0h13.801v14.304h18.193v13.801H39.899v50.564h11.543v6.524h7.905v6.649h7.904V100H0V99.998zM65.622 93.348H1.506v5.019h64.116V93.348zM57.716 86.825H9.537v5.019h48.179V86.825zM49.812 80.175H17.44v5.019h32.371V80.175L49.812 80.175z" fill="#ffffff" data-fill-palette-color="accent"></path></svg></g></svg></g><g><rect width="131.33887421078907" height="3.9369218093982266" y="102.2824130085286" x="241.81303742920193" fill="#ffffff" data-fill-palette-color="accent"></rect><rect width="131.33887421078907" height="3.9369218093982266" y="102.2824130085286" x="22.368088360008898" fill="#ffffff" data-fill-palette-color="accent"></rect><rect width="131.33887421078907" height="3.9369218093982266" y="94.40856938973214" x="241.81303742920193" fill="#ffffff" data-fill-palette-color="accent"></rect><rect width="131.33887421078907" height="3.9369218093982266" y="94.40856938973214" x="22.368088360008898" fill="#ffffff" data-fill-palette-color="accent"></rect></g></svg></g></svg></g></svg></g><defs></defs></svg><rect width="395.52" height="247.2" fill="none" stroke="none" visibility="hidden"></rect></g></svg></g></svg>